<?xml version="1.0" encoding="UTF-8"?>
<!-- Uploaded to: SVG Find, www.svgfind.com, Generator: SVG Find Mixer Tools -->
<svg fill="#000000" width="800px" height="800px" version="1.1" viewBox="144 144 512 512" xmlns="http://www.w3.org/2000/svg">
 <g>
  <path d="m195.19 432.77h15.266v132.32h-15.266z"/>
  <path d="m228.8 572.72h44.234v-44.238h-44.234zm15.266-28.969h13.703v13.703h-13.703z"/>
  <path d="m236.44 490.31h28.969v15.266h-28.969z"/>
  <path d="m236.44 452.15h28.969v15.266h-28.969z"/>
  <path d="m307.71 490.31h28.969v15.266h-28.969z"/>
  <path d="m307.71 452.15h28.969v15.266h-28.969z"/>
  <path d="m300.08 572.72h44.234v-44.238h-44.234zm15.266-28.969h13.703v13.703h-13.703z"/>
  <path d="m595.67 358.69h-218.03v214.03h218.03zm-15.266 51.453h-36.461v-36.184h36.461zm-86.113 0v-36.184h34.387v36.184zm34.387 15.266v32.66h-34.387v-32.66zm-49.656-15.266h-34.387v-36.184h34.387zm0 15.266v32.66h-34.387v-32.66zm-49.652 32.66h-36.461v-32.66h36.461zm0 15.266v32.66h-36.461v-32.66zm15.266 0h34.387v32.66h-34.387zm34.387 47.926v36.191h-34.387v-36.191zm15.27 0h34.387v36.191h-34.387zm0-15.266v-32.66h34.387v32.66zm49.652-32.66h36.461v32.66h-36.461zm0-15.266v-32.66h36.461v32.66zm-114.57-84.109v36.184h-36.461v-36.184zm-36.461 147.3h36.461v36.191h-36.461zm151.04 36.191v-36.191h36.461v36.191z"/>
  <path d="m188.35 398.71h28.961v15.266h-28.961z"/>
  <path d="m188.35 368.18h28.961v15.266h-28.961z"/>
  <path d="m188.35 337.64h28.961v15.266h-28.961z"/>
  <path d="m188.35 297.25h28.961v15.266h-28.961z"/>
  <path d="m236.69 297.25h28.969v15.266h-28.969z"/>
  <path d="m285.04 297.25h28.969v15.266h-28.969z"/>
  <path d="m333.38 297.25h28.961v15.266h-28.961z"/>
  <path d="m432.11 297.25h28.961v15.266h-28.961z"/>
  <path d="m480.45 297.25h28.969v15.266h-28.969z"/>
  <path d="m432.11 327.78h28.961v15.266h-28.961z"/>
  <path d="m480.45 327.78h28.969v15.266h-28.969z"/>
  <path d="m528.79 297.25h28.969v15.266h-28.969z"/>
  <path d="m577.14 297.25h28.961v15.266h-28.961z"/>
  <path d="m312.96 221.82h-117.77v60.152h117.77zm-15.27 44.883h-87.234v-29.617h87.234z"/>
  <path d="m477.84 274.76c12.605 0 22.855-10.258 22.855-22.863s-10.25-22.855-22.855-22.855c-12.652 0-22.945 10.25-22.945 22.855s10.293 22.863 22.945 22.863zm0-30.453c4.1836 0 7.5898 3.4062 7.5898 7.5898 0 4.1914-3.4062 7.5977-7.5898 7.5977-4.2344 0-7.6797-3.4062-7.6797-7.5977 0-4.1836 3.4453-7.5898 7.6797-7.5898z"/>
  <path d="m560.45 274.76c12.605 0 22.855-10.258 22.855-22.863s-10.25-22.855-22.855-22.855c-12.652 0-22.945 10.25-22.945 22.855s10.297 22.863 22.945 22.863zm0-30.453c4.1836 0 7.5898 3.4062 7.5898 7.5898 0 4.1914-3.4062 7.5977-7.5898 7.5977-4.2344 0-7.6797-3.4062-7.6797-7.5977 0.003907-4.1836 3.4453-7.5898 7.6797-7.5898z"/>
  <path d="m600.96 181.48h-15.266v9.7969h-12.672v-9.7969h-15.266v9.7969h-12.672l-0.003906-9.7969h-15.266v9.7969h-12.672v-9.7969h-15.266v9.7969h-12.664l-0.003906-9.7969h-15.266v9.7969l-12.676-0.003906v-9.793h-15.266v9.7969h-12.672v-9.7969h-15.266v9.7969l-262.34-0.003906v427.24h488.54v-427.24h-43.305zm28.039 421.77h-458.01v-396.71h458.01z"/>
 </g>
</svg>