<svg width="24" height="24" viewBox="0 0 24 24" fill="none" xmlns="http://www.w3.org/2000/svg">
  <circle cx="12" cy="12" r="12" fill="#1ED760"/>
  <path d="M17.1 16.2c-.2.3-.6.4-.9.2-2.5-1.5-5.7-1.8-9.4-.9-.4.1-.7-.1-.8-.5-.1-.4.1-.7.5-.8 4-1 7.5-.7 10.3 1 .3.2.4.6.3 1zm1.3-2.7c-.2.3-.5.5-.9.3-2.9-1.8-7.3-2.3-10.7-1.1-.4.1-.8-.1-.9-.5-.1-.4.1-.8.5-.9 3.8-1.3 8.6-.7 11.9 1.2.4.2.5.6.3 1zm.1-2.8c-3.4-2-9-2.2-12.2-1.1-.5.2-1-.1-1.1-.5-.2-.5.1-1 .5-1.1 3.7-1.2 9.8-1 13.7 1.2.5.3.6.9.3 1.3-.3.4-.9.5-1.2.2z" fill="#fff"/>
</svg>